<svg version="1.1" id="Capa_1" xmlns="http://www.w3.org/2000/svg" x="0" y="0" width="612" height="612" xml:space="preserve"><path d="M190.657 172.125l-47.717-153H19.125C8.568 19.125 0 27.693 0 38.25s8.568 19.125 19.125 19.125h95.625l38.441 114.75H153l38.25 229.5c0 42.247 34.253 76.5 76.5 76.5h210.375c42.247 0 76.5-34.253 76.5-76.5L612 172.125H190.657zm325.718 229.5c0 21.114-17.136 38.25-38.25 38.25H267.75c-21.133 0-38.25-17.136-38.25-38.25l-31.881-191.25h366.569l-47.813 191.25zM267.75 516.375c-21.133 0-38.25 17.117-38.25 38.25 0 21.114 17.117 38.25 38.25 38.25S306 575.739 306 554.625c0-21.133-17.117-38.25-38.25-38.25zm191.25 0c-21.133 0-38.25 17.117-38.25 38.25 0 21.114 17.117 38.25 38.25 38.25s38.25-17.136 38.25-38.25c0-21.133-17.117-38.25-38.25-38.25z" id="_x38__34_"/></svg>