<svg version="1.1" id="Layer_1" xmlns="http://www.w3.org/2000/svg" x="0" y="0" viewBox="0 0 482.6 482.6" xml:space="preserve"><path d="M411.9 70.697c-7-7-18.4-7-25.5 0l-54.9 54.9c-7 7-7 18.4 0 25.5 7 7 18.4 7 25.5 0l41.7-41.7c67.6 80.5 63.6 201.2-12.2 277-80 80-210.2 80-290.2 0s-80-210.2 0-290.2c49.2-49.2 119.3-70 187.4-55.7 9.5 2 19.1-4.2 21.1-14 2-9.7-4.2-19.3-13.9-21.3-80.1-16.8-162.5 7.7-220.3 65.5-45.5 45.6-70.6 106.2-70.6 170.6s25.1 125 70.7 170.6c45.6 45.6 106.1 70.7 170.6 70.7s125-25.1 170.6-70.7c45.6-45.6 70.7-106.1 70.7-170.6s-25.1-125-70.7-170.6z"/><path d="M241.2 73.397c-9.9 0-18 8.1-18 18v142.4l-71.8 71.8c-7 7-7 18.4 0 25.5 3.5 3.5 8.1 5.3 12.7 5.3s9.2-1.8 12.7-5.3l77.1-77.1c.4-.4.8-.9 1.2-1.3.2-.2.3-.4.4-.6.2-.3.4-.5.6-.8.2-.2.3-.5.5-.8.1-.2.3-.5.4-.8.1-.3.3-.5.4-.8.1-.3.3-.5.4-.8.1-.3.2-.5.3-.8l.3-.9c.1-.3.1-.5.2-.8.1-.3.2-.6.2-.9.1-.3.1-.6.1-1 0-.3.1-.5.1-.8.1-.6.1-1.2.1-1.8v-149.7c.1-9.9-8-18-17.9-18z"/></svg>