<svg version="1.1" id="Capa_1" xmlns="http://www.w3.org/2000/svg" x="0" y="0" viewBox="0 0 512 512" xml:space="preserve"><path d="M497 60h-77.509C412.522 25.808 382.22 0 346 0s-66.522 25.808-73.491 60H15C6.716 60 0 66.716 0 75s6.716 15 15 15h257.509c6.968 34.192 37.271 60 73.491 60s66.522-25.808 73.491-60H497c8.284 0 15-6.716 15-15s-6.716-15-15-15zm-151 60c-24.809 0-44.993-20.18-45-44.987l.001-.013-.001-.013C301.007 50.18 321.191 30 346 30c24.813 0 45 20.187 45 45s-20.187 45-45 45zm151 121H239.491c-6.968-34.192-37.271-60-73.491-60s-66.522 25.808-73.491 60H15c-8.284 0-15 6.716-15 15s6.716 15 15 15h77.509c6.968 34.192 37.271 60 73.491 60s66.522-25.808 73.491-60H497c8.284 0 15-6.716 15-15s-6.716-15-15-15zm-331 60c-24.809 0-44.993-20.18-45-44.987l.001-.013-.001-.013C121.007 231.18 141.191 211 166 211c24.813 0 45 20.187 45 45s-20.187 45-45 45zm331 121h-77.509c-6.968-34.192-37.271-60-73.491-60s-66.522 25.808-73.491 60H15c-8.284 0-15 6.716-15 15s6.716 15 15 15h257.509c6.968 34.192 37.271 60 73.491 60s66.522-25.808 73.491-60H497c8.284 0 15-6.716 15-15s-6.716-15-15-15zm-151 60c-24.809 0-44.993-20.18-45-44.987l.001-.013-.001-.013C301.007 412.18 321.191 392 346 392c24.813 0 45 20.187 45 45s-20.187 45-45 45z"/></svg>