<svg viewBox="0 0 40 40" xmlns="http://www.w3.org/2000/svg"><path fill="#FF8C00" d="M31.75 26.911c.116.78-.13 1.104-.378 1.104-.269 0-.61-.315-1.008-.94-.395-.616-.537-1.321-.344-1.68.13-.236.401-.34.742-.21.66.25.918 1.261.987 1.726zm-3.652 1.7c.79.67 1.03 1.466.612 2.027-.233.308-.61.478-1.062.478-.445 0-.897-.165-1.21-.44-.718-.627-.93-1.648-.46-2.227.184-.227.481-.351.84-.351.434 0 .89.183 1.28.514zm-1.324 6.46c3.41 0 7.107 1.168 11.201 4.796.411.364.956-.088.6-.54-4.024-5.081-7.746-6.048-11.457-6.864-4.538-1-6.874-3.554-8.502-6.36-.324-.559-.468-.46-.5.258-.035.876.027 2.039.223 3.179-.184.008-.367.005-.553.005-6.495 0-11.76-5.265-11.76-11.76s5.265-11.758 11.76-11.758 11.759 5.264 11.759 11.759c0 .462-.023.92-.075 1.367-.858-.155-2.548-.173-3.734-.07-.448.039-.383.246-.047.308 3.887.703 6.557 3.111 7.17 7.482.012.1.144.131.195.044a17.7 17.7 0 002.518-9.131C35.577 7.966 27.612 0 17.788 0 7.965 0 0 7.965 0 17.788c0 9.824 7.965 17.789 17.788 17.789 2.605 0 5.192-.507 8.986-.507z"/></svg>