<svg xmlns="http://www.w3.org/2000/svg" viewBox="0 0 40 40"><path fill="#21a038" d="M35.8 7.8c.9 1.2 1.7 2.6 2.4 4L20 25.2l-7.6-4.8v-5.7l7.6 4.8c0-.1 15.8-11.7 15.8-11.7zm3.9 8.6l-4.3 3.2v.4c0 4.5-1.9 8.5-5 11.4l3.1 3.5c4-3.7 6.6-8.9 6.6-14.8-.1-1.3-.2-2.5-.4-3.7z"/><linearGradient id="gr1" gradientUnits="userSpaceOnUse" x1="19.505" y1="38.164" x2="31.109" y2="34.025"><stop offset=".123" stop-color="#a3cd39"/><stop offset=".285" stop-color="#86c339"/><stop offset=".869" stop-color="#21a038"/></linearGradient><path d="M30.9 30.9c-2.8 2.8-6.6 4.5-10.9 4.5h-.8L19 40c.4 0 .7.1 1.1.1 5.6 0 10.6-2.3 14.2-5.9l-3.4-3.3z" fill="url(#gr1)"/><linearGradient id="gr2" gradientUnits="userSpaceOnUse" x1="5.668" y1="32.992" x2="19.172" y2="37.063"><stop offset=".132" stop-color="#f2e913"/><stop offset=".298" stop-color="#ebe716"/><stop offset=".531" stop-color="#d9e01f"/><stop offset=".802" stop-color="#bbd62d"/><stop offset=".983" stop-color="#a3cd39"/></linearGradient><path d="M20 35.4c-4.5 0-8.6-2-11.4-5.1l-3.4 3.1c3.6 4 8.9 6.6 14.8 6.6v-4.6z" fill="url(#gr2)"/><linearGradient id="gr3" gradientUnits="userSpaceOnUse" x1="6.01" y1="33.115" x2="3.228" y2="20.562"><stop offset=".144" stop-color="#f2e913"/><stop offset=".304" stop-color="#e7e518"/><stop offset=".582" stop-color="#cadb26"/><stop offset=".891" stop-color="#a3cd39"/></linearGradient><path d="M9.1 30.9C6.3 28.1 4.6 24.3 4.6 20v-.9L0 18.9V20c0 5.5 2.2 10.5 5.8 14.1l3.3-3.2z" fill="url(#gr3)"/><linearGradient id="gr4" gradientUnits="userSpaceOnUse" x1="2.565" y1="21.14" x2="6.569" y2="6.754"><stop offset=".07" stop-color="#a3cd39"/><stop offset=".26" stop-color="#81c55f"/><stop offset=".922" stop-color="#0fa8e0"/></linearGradient><path d="M4.6 20c0-4.5 2-8.6 5.1-11.4L6.6 5.2C2.5 8.9 0 14.1 0 20h4.6z" fill="url(#gr4)"/><linearGradient id="gr5" gradientUnits="userSpaceOnUse" x1="6.262" y1="6.234" x2="20.512" y2="3.113"><stop offset=".059" stop-color="#0fa8e0"/><stop offset=".538" stop-color="#0099f9"/><stop offset=".923" stop-color="#0291eb"/></linearGradient><path d="M8.9 9.4c2.8-2.9 6.7-4.7 11.1-4.7h.8l.3-4.7H20C14.3 0 9.2 2.4 5.6 6.2l3.3 3.2z" fill="url(#gr5)"/><linearGradient id="gr6" gradientUnits="userSpaceOnUse" x1="18.878" y1="2.334" x2="32.178" y2="5.048"><stop offset=".057" stop-color="#0291eb"/><stop offset=".79" stop-color="#0c8acb"/></linearGradient><path d="M20 4.6c3.2 0 6.2 1 8.7 2.7l3.9-2.9C29.1 1.7 24.8 0 20 0v4.6z" fill="url(#gr6)"/></svg>