<svg width="212" height="202" viewBox="0 0 212 202" fill="none" xmlns="http://www.w3.org/2000/svg">
<path d="M209.9 189C194.973 163.285 171.079 143.985 142.8 134.8C156.355 126.74 166.888 114.452 172.782 99.8244C178.676 85.1969 179.605 69.0389 175.425 53.8325C171.246 38.6262 162.189 25.2127 149.647 15.6527C137.104 6.09264 121.77 0.914917 106 0.914917C90.2297 0.914917 74.8956 6.09264 62.3533 15.6527C49.8111 25.2127 40.7544 38.6262 36.5748 53.8325C32.3951 69.0389 33.3236 85.1969 39.2177 99.8244C45.1117 114.452 55.6452 126.74 69.2 134.8C40.921 143.985 17.0274 163.285 2.1 189C1.4739 189.908 1.04243 190.936 0.832696 192.019C0.622966 193.102 0.639514 194.217 0.881299 195.294C1.12308 196.37 1.58488 197.385 2.23767 198.274C2.89046 199.163 3.72013 199.908 4.67456 200.461C5.62898 201.015 6.68752 201.365 7.78367 201.489C8.87982 201.614 9.98988 201.51 11.0441 201.185C12.0983 200.86 13.0739 200.32 13.9096 199.6C14.7452 198.88 15.4229 197.995 15.9 197C25.0438 181.2 38.1818 168.082 53.9961 158.962C69.8103 149.843 87.7447 145.042 106 145.042C124.255 145.042 142.19 149.843 158.004 158.962C173.818 168.082 186.956 181.2 196.1 197C196.577 197.995 197.255 198.88 198.09 199.6C198.926 200.32 199.902 200.86 200.956 201.185C202.01 201.51 203.12 201.614 204.216 201.489C205.312 201.365 206.371 201.015 207.325 200.461C208.28 199.908 209.11 199.163 209.762 198.274C210.415 197.385 210.877 196.37 211.119 195.294C211.36 194.217 211.377 193.102 211.167 192.019C210.958 190.936 210.526 189.908 209.9 189ZM50 73C50 61.9242 53.2843 51.0972 59.4377 41.888C65.5911 32.6789 74.3371 25.5012 84.5697 21.2627C94.8024 17.0242 106.062 15.9152 116.925 18.076C127.788 20.2368 137.766 25.5703 145.598 33.402C153.43 41.2337 158.763 51.212 160.924 62.0749C163.085 72.9378 161.976 84.1976 157.737 94.4302C153.499 104.663 146.321 113.409 137.112 119.562C127.903 125.716 117.076 129 106 129C91.1479 129 76.9041 123.1 66.402 112.598C55.9 102.096 50 87.8521 50 73Z" fill="black"/>
</svg>
