<svg xmlns="http://www.w3.org/2000/svg" viewBox="0 0 40 40"><path d="M18.15 24.87h-2.26l1.41-8.71h2.25Zm8.16-8.5a5.46 5.46 0 0 0-2-.37c-2.22 0-3.79 1.19-3.8 2.88 0 1.25 1.12 1.95 2 2.37s1.16.7 1.16 1.08c0 .58-.7.85-1.35.85a4.52 4.52 0 0 1-2.11-.46l-.3-.14-.32 2a7 7 0 0 0 2.52.46c2.36 0 3.9-1.17 3.92-3 0-1-.6-1.75-1.89-2.37-.79-.4-1.27-.67-1.27-1.07s.4-.75 1.29-.75a3.75 3.75 0 0 1 1.68.33l.21.09.3-1.88Zm3 5.41h1.87l-.52-2.52-.16-.75c-.11.33-.3.85-.29.84s-.72 1.93-.9 2.43Zm2.78-5.62 1.81 8.71h-2.08s-.21-1-.27-1.31h-2.89c-.09.23-.48 1.31-.48 1.31h-2.36l3.35-8a1.11 1.11 0 0 1 1.17-.72Zm-18.09 0-2.2 5.94-.25-1.21a6.61 6.61 0 0 0-3.11-3.65l2 7.62h2.38l3.54-8.7Zm-4.25 0H6.13v.17a7.54 7.54 0 0 1 5.46 4.56l-.78-4a.93.93 0 0 0-1-.73Z"/></svg>